<?xml version="1.0" encoding="utf-8"?>
<!-- Generator: Adobe Illustrator 19.2.0, SVG Export Plug-In . SVG Version: 6.00 Build 0)  -->
<svg version="1.1" id="Layer_1" xmlns="http://www.w3.org/2000/svg" xmlns:xlink="http://www.w3.org/1999/xlink" x="0px" y="0px"
	 viewBox="0 0 503 344.2" style="enable-background:new 0 0 503 344.2;" xml:space="preserve">
<style type="text/css">
	.st0{display:none;fill:#5D5D5D;}
	.st1{fill:#FFFFFF;}
</style>
<rect x="-120" y="-51.1" class="st0" width="1040" height="541"/>
<title>asigma-logo-white</title>
<path class="st1" d="M91.5,291.4H50.4V290c3.7-0.3,6.3-1,7.8-1.9c2.5-1.4,4-4,3.9-6.8c-0.2-2.4-0.8-4.7-1.8-6.9l-1.1-2.6l-6-14.8
	H25.7l-3.3,8.6l-1.6,3.9c-1.9,4.6-2.8,8.2-2.8,10.8c0,1.5,0.3,3,1,4.3c0.7,1.3,1.6,2.4,2.8,3.3c1.9,1.2,4.1,1.9,6.3,2v1.4h-28v-1.4
	c2-0.1,4-0.6,5.8-1.6c1.9-1.2,3.6-2.8,4.9-4.6c1.5-2.1,2.8-4.3,3.9-6.6c1.3-2.7,2.9-6.7,5-12.1l22.9-59h3.6l27.2,65.7
	c1.4,3.6,3,7.2,4.9,10.6c1,1.8,2.3,3.5,3.9,4.8c1,0.8,2.2,1.4,3.4,1.7c1.9,0.5,3.8,0.8,5.8,1L91.5,291.4L91.5,291.4L91.5,291.4z
	 M52.2,254.5l-13.1-32.4l-12.4,32.4C26.7,254.5,52.2,254.5,52.2,254.5z"/>
<path class="st1" d="M96.3,291.1l0.2-25.8l1.4,0.1c1.8,6.6,3.8,11.8,6.3,15.5c4.5,7,10.3,10.5,17.1,10.5c4.5,0.1,8.8-1.6,11.9-4.8
	c3.1-3.3,4.8-7.7,4.7-12.2c0-2.2-0.3-4.4-1-6.5c-0.6-2-1.6-4-2.8-5.7c-1.4-1.8-3.2-3.4-5.1-4.7c-3.2-2.1-6.6-4-10-5.7
	c-3.1-1.5-6.2-3.2-9.1-5.1c-1.9-1.2-3.6-2.6-5.1-4.2c-3.6-3.9-5.5-9-5.4-14.3c0-6.9,2.9-13.5,7.9-18.3c5.7-5.2,13.6-7.2,21.1-5.5
	c2.3,0.6,4.5,1.4,6.7,2.3c2.1,0.8,3.5,1.4,4.3,1.6c0.7,0.2,1.3,0.3,2,0.3c1.5,0,2.4-1.1,2.9-3.2h1.4l0.4,24.8h-1.4
	c-1.1-4-2.1-7-2.9-9.1c-0.8-2-1.7-4-2.9-5.8c-1.6-2.9-3.9-5.4-6.7-7.2c-2.6-1.6-5.5-2.3-8.5-2.3c-4.2-0.2-8.3,1.6-11.1,4.8
	c-1.2,1.4-2.1,2.9-2.7,4.6c-0.7,1.7-1,3.5-1,5.3c0,7,4.5,12.6,13.4,16.8l8.8,4.3c6.8,3.2,11.7,6.8,14.7,10.6
	c3.4,4.3,5.2,9.7,5.1,15.2c0,3.8-0.8,7.5-2.3,11c-2,4.7-5.4,8.6-9.8,11.3c-4.6,2.7-9.9,4.1-15.3,4c-5.3,0-10.6-1.1-15.5-3.2
	c-2.6-1.1-4.1-1.8-4.6-1.9c-0.5-0.2-1.1-0.3-1.7-0.3c-1.9-0.1-3.6,1.2-4.1,3h-1.3V291.1z"/>
<path class="st1" d="M199.4,206v1.4c-2,0.1-3.9,0.4-5.8,1c-1.5,0.5-2.9,1.4-4,2.6c-1.7,1.9-2.8,4.3-3,6.9c-0.3,2.5-0.4,5.1-0.4,7.6
	v46.1c0,2.7,0.1,5.5,0.5,8.2c0.2,1.7,0.8,3.3,1.6,4.8c1,1.6,2.5,2.9,4.2,3.7c2.2,0.9,4.5,1.4,6.8,1.5v1.4h-40v-1.4
	c2,0,3.9-0.4,5.8-1c1.5-0.6,2.8-1.4,3.9-2.6c1.4-1.4,2.3-3.2,2.7-5.1c0.6-3.1,0.8-6.3,0.7-9.5v-46.1c0.1-3.2-0.1-6.4-0.7-9.5
	c-0.4-1.9-1.4-3.7-2.7-5.1c-1.1-1.2-2.4-2.1-3.9-2.6c-1.9-0.6-3.8-0.9-5.8-1v-1.4h40.1L199.4,206L199.4,206z"/>
<path class="st1" d="M283.8,206l0.8,27.2l-1.4,0.1c-2.9-9.3-6.6-16.1-11.1-20.7c-4.3-4.4-10.2-6.9-16.3-6.8c-4.5-0.1-8.9,0.9-12.8,3
	c-3.6,2-6.9,5.3-10,9.9c-6.3,9.3-9.4,19.9-9.4,31.9c0,5.5,0.8,10.9,2.3,16.2c1.4,4.8,3.6,9.4,6.6,13.4c5.6,7.5,12.4,11.3,20.5,11.3
	c3.1,0,6.1-0.7,8.9-2c2.7-1.3,5.1-3.1,6.9-5.5c2.5-3.3,3.8-7.4,3.7-11.6c0-4.1-1.1-7.1-3.3-8.9s-5.9-2.8-11-2.8v-1.4h39.9v1.4
	c-3.7,0.3-6.2,0.8-7.7,1.5c-1.5,0.7-2.7,2-3.3,3.5c-0.8,1.8-1.2,5.5-1.2,10.9c0,1.5,0.1,3.8,0.3,7l0.1,1.4c-1.1-0.5-2.3-0.8-3.5-0.9
	c-1.3,0.1-2.5,0.6-3.5,1.4c-3.9,2.6-8.1,4.6-12.6,5.8c-5,1.3-10.1,2-15.2,2c-6.8,0.1-13.6-1.2-19.9-3.8
	c-10.2-4.1-17.8-12.7-20.7-23.3c-1.5-5-2.2-10.2-2.2-15.4c-0.1-7.1,1.3-14.2,4-20.8c4.4-11.2,13.6-19.9,25-23.7
	c5.3-1.9,10.8-2.8,16.4-2.8c3.1,0,6.2,0.3,9.3,0.9c3.1,0.7,6.2,1.7,9.1,3.1l3.7,1.7c0.8,0.4,1.6,0.6,2.5,0.6c1.7,0,2.9-1.4,3.8-4.1
	h1.3L283.8,206L283.8,206z"/>
<path class="st1" d="M409.8,207.4c-1.9,0-3.9,0.3-5.7,1c-1.5,0.6-2.8,1.5-4,2.6c-0.9,0.8-1.6,1.8-2.1,2.9c-0.5,1.3-0.8,2.6-0.9,4
	c-0.3,2.6-0.4,5.1-0.4,7.7v46.1c-0.1,3.2,0.2,6.4,0.8,9.6c0.4,1.9,1.3,3.6,2.7,5c2.3,2.2,5.5,3.4,9.7,3.6v1.4h-40v-1.4
	c2,0,3.9-0.4,5.8-1c1.5-0.6,2.9-1.5,4-2.6c1.4-1.4,2.3-3.2,2.7-5.1c0.6-3.1,0.8-6.3,0.7-9.5v-55.9l-32.2,75.5h-1.3l-32-74.4v54.8
	c-0.1,3.2,0.1,6.4,0.7,9.5c0.4,1.9,1.4,3.7,2.7,5.1c1.1,1.2,2.5,2.1,4,2.6c1.9,0.6,3.8,0.9,5.8,1v1.4H302v-1.4c2-0.1,3.9-0.4,5.8-1
	c1.5-0.5,2.9-1.4,4-2.6c1.4-1.4,2.3-3.2,2.7-5.1c0.6-3.1,0.8-6.3,0.7-9.5v-46.1c0-1.9-0.1-3.7-0.2-5.4c-0.1-2.3-0.5-4.6-1.4-6.8
	c-0.9-1.9-2.4-3.4-4.3-4.3c-2.3-1-4.7-1.6-7.2-1.7V206h27.1l27.1,66.9l28.1-66.9h25.7v1.4L409.8,207.4L409.8,207.4z"/>
<path class="st1" d="M503,291.4h-41.1V290c3.7-0.3,6.3-1,7.8-1.9c2.5-1.4,4-4,3.9-6.8c-0.2-2.4-0.8-4.7-1.8-6.9l-1.1-2.6l-6-14.8
	h-27.5l-3.3,8.6l-1.6,3.9c-1.9,4.6-2.8,8.2-2.8,10.8c0,1.5,0.3,3,1,4.3c0.7,1.3,1.6,2.4,2.8,3.3c1.9,1.2,4.1,1.9,6.3,2v1.4h-28v-1.4
	c2-0.1,4-0.6,5.8-1.6c1.9-1.2,3.6-2.8,4.9-4.6c1.5-2.1,2.8-4.3,3.9-6.6c1.3-2.7,2.9-6.7,5-12.1l22.9-59h3.6l27.2,65.7
	c1.4,3.6,3,7.2,4.9,10.6c1,1.8,2.3,3.5,3.9,4.8c1,0.8,2.2,1.4,3.4,1.7c1.9,0.5,3.8,0.8,5.8,1v1.6L503,291.4L503,291.4z M463.8,254.5
	l-13.1-32.4l-12.4,32.4H463.8z"/>
<path class="st1" d="M351,136.8"/>
<path class="st1" d="M126.4,193.6L271.8,15.8l63.8,117.6c26.4-39.2,16-92.4-23.2-118.8S220-1.4,193.6,37.8
	c-8.7,12.9-13.7,28-14.5,43.5c-0.4,8.5,0.4,17,2.5,25.3L126.4,193.6z"/>
<path class="st1" d="M276.6,170.4c22.9-3.3,43.6-15.7,57.2-34.5l-52-68.9L276.6,170.4z"/>
<path class="st1" d="M267,53.1l-76.4,75.7c14.5,25,40.7,40.9,69.6,42.3h0.9L267,53.1z"/>
<g>
	<path class="st1" d="M19.1,342.7c-9.1,0-15.8-7-15.8-15.8v-0.1c0-8.8,6.6-15.9,16.1-15.9c5.8,0,9.3,1.9,12.1,4.8l-4.3,5
		c-2.4-2.2-4.8-3.5-7.9-3.5c-5.2,0-8.9,4.3-8.9,9.6v0.1c0,5.3,3.7,9.7,8.9,9.7c3.5,0,5.7-1.4,8.1-3.6l4.3,4.4
		C28.6,340.6,25.1,342.7,19.1,342.7z"/>
	<path class="st1" d="M110.3,342.2l-2.8-6.9h-13l-2.8,6.9h-6.9l13.2-31h6.2l13.2,31H110.3z M100.9,319.3l-4.1,10h8.2L100.9,319.3z"
		/>
	<path class="st1" d="M184.2,333H179v9.2h-6.8v-30.8h12.6c7.3,0,11.8,4.4,11.8,10.6v0.1C196.6,329.3,191.1,333,184.2,333z
		 M189.8,322.2c0-3-2.1-4.7-5.5-4.7H179v9.4h5.4C187.8,326.9,189.8,324.9,189.8,322.2L189.8,322.2z"/>
	<path class="st1" d="M252.1,342.2v-30.8h6.8v30.8H252.1z"/>
	<path class="st1" d="M330.7,317.7v24.6h-6.8v-24.6h-9.4v-6.2h25.5v6.2H330.7z"/>
	<path class="st1" d="M414.4,342.2l-2.8-6.9h-13l-2.8,6.9h-6.9l13.2-31h6.2l13.2,31H414.4z M405.1,319.3l-4.1,10h8.2L405.1,319.3z"
		/>
	<path class="st1" d="M476.4,342.2v-30.8h6.8V336h15.4v6.2H476.4z"/>
</g>
</svg>
